<svg width="58" height="56" viewBox="0 0 58 56" fill="none" xmlns="http://www.w3.org/2000/svg">
  <path
    d="M48 23.5C52.6944 23.5 56.5 19.6944 56.5 15C56.5 10.3056 52.6944 6.5 48 6.5C43.3056 6.5 39.5 10.3056 39.5 15C39.5 19.6944 43.3056 23.5 48 23.5Z"
    fill="#7F56D9"
    stroke="white"
    stroke-width="3"
  />
  <path
    fill-rule="evenodd"
    clip-rule="evenodd"
    d="M52.8333 27.0717V39.6665C52.8333 41.369 52.1414 42.9127 51.0271 44.027C49.9128 45.1413 48.3691 45.8332 46.6667 45.8332H9.33332C7.63086 45.8332 6.08714 45.1413 4.97283 44.027C3.85853 42.9127 3.16666 41.369 3.16666 39.6665V16.3332C3.16666 14.6233 3.8646 13.0735 4.98746 11.9581C6.10063 10.8524 7.63834 10.1665 9.33332 10.1665H35.9282C35.5476 11.1163 35.2758 12.1215 35.1283 13.1665H9.33332C9.06654 13.1665 8.80768 13.1994 8.56044 13.2613L27.4464 30.1675L27.4477 30.1687C27.7629 30.4476 28.2366 30.4478 28.5519 30.169L28.5536 30.1675L37.2781 22.3533C37.8471 23.1813 38.5095 23.9401 39.2501 24.6145L37.1479 26.4973L49.7321 40.4652C49.7982 40.2102 49.8333 39.9426 49.8333 39.6665V27.8716C50.8784 27.7241 51.8835 27.4523 52.8333 27.0717ZM34.9132 28.4989L47.679 42.6683C47.3613 42.7754 47.021 42.8332 46.6667 42.8332H9.33332C9.01594 42.8332 8.70978 42.7868 8.42102 42.7002L21.8959 29.2253L25.4493 32.4062L25.4533 32.4097C26.9057 33.7007 29.0943 33.7007 30.5467 32.4097L30.5509 32.406L34.9132 28.4989ZM19.6573 27.2213L6.2997 40.5788C6.21309 40.2901 6.16666 39.9839 6.16666 39.6665V16.3332C6.16666 15.9708 6.2272 15.623 6.33898 15.2991L19.6573 27.2213Z"
    fill="white"
  />
</svg>
