<svg width="17" height="17" viewBox="0 0 17 17" fill="none" xmlns="http://www.w3.org/2000/svg">
<path id="Vector" fill-rule="evenodd" clip-rule="evenodd" d="M15.5046 0.327637C16.1546 0.327637 16.6886 0.839637 16.6886 1.47964V15.1756C16.6886 15.8056 16.1556 16.3276 15.5046 16.3276H1.8726C1.2226 16.3276 0.688599 15.8046 0.688599 15.1756V1.47964C0.688599 0.839637 1.2216 0.327637 1.8726 0.327637H15.5046ZM4.2516 5.28764C4.61156 5.27795 4.95353 5.12815 5.2047 4.87013C5.45588 4.6121 5.59643 4.26623 5.59643 3.90614C5.59643 3.54604 5.45588 3.20017 5.2047 2.94215C4.95353 2.68412 4.61156 2.53432 4.2516 2.52464C3.4836 2.52464 2.8756 3.14364 2.8756 3.90064C2.8756 4.66864 3.4836 5.28764 4.2516 5.28764ZM14.3206 9.77764C14.3206 7.71964 13.8836 6.14064 11.4726 6.14064C10.3206 6.14064 9.5526 6.77064 9.2326 7.36764H9.2006V6.32264H6.9286V13.9596H9.2966V10.1836C9.2966 9.19164 9.4776 8.22064 10.7156 8.22064C11.9316 8.22064 11.9526 9.36264 11.9526 10.2476V13.9596H14.3206V9.77764ZM3.0566 13.9606H5.4356V6.32264H3.0566V13.9606Z" fill="white"/>
</svg>
