<svg width="17" height="17" viewBox="0 0 17 17" fill="none" xmlns="http://www.w3.org/2000/svg">
<path id="Vector" fill-rule="evenodd" clip-rule="evenodd" d="M15.8036 0.327639H1.5736C1.45731 0.327375 1.34211 0.350086 1.23461 0.394469C1.12712 0.43885 1.02946 0.504029 0.947223 0.586261C0.864991 0.668494 0.799812 0.76616 0.75543 0.873652C0.711048 0.981145 0.688337 1.09635 0.688601 1.21264V15.4426C0.688601 15.9326 1.0836 16.3276 1.5736 16.3276H9.2326V10.1306H7.1426V7.73064H9.2326V5.94764C9.2326 3.87864 10.5026 2.75864 12.3366 2.75864C13.2116 2.75864 13.9796 2.81164 14.2036 2.85464V5.00964H12.9126C11.9096 5.00964 11.7286 5.47864 11.7286 6.18264V7.72964H14.1076L13.7976 10.1296H11.7286V16.3276H15.8036C16.2936 16.3276 16.6886 15.9326 16.6886 15.4426V1.21264C16.6889 1.09635 16.6662 0.981145 16.6218 0.873652C16.5774 0.76616 16.5122 0.668494 16.43 0.586261C16.3477 0.504029 16.2501 0.43885 16.1426 0.394469C16.0351 0.350086 15.9199 0.327375 15.8036 0.327639Z" fill="white"/>
</svg>
