<svg width="20" height="17" viewBox="0 0 20 17" fill="none" xmlns="http://www.w3.org/2000/svg">
<path id="Vector" d="M19.6886 2.22118C18.9643 2.54302 18.1871 2.76025 17.3686 2.85687C18.2025 2.35718 18.8431 1.56579 19.1452 0.623021C18.3637 1.08456 17.5003 1.42302 16.5803 1.60271C15.8431 0.818098 14.7932 0.327637 13.6314 0.327637C11.4 0.327637 9.59262 2.13564 9.59262 4.36641C9.59262 4.68271 9.62769 4.99164 9.69723 5.28702C6.33908 5.11717 3.36308 3.50918 1.37108 1.0661C1.02338 1.66302 0.823385 2.35718 0.823385 3.09687C0.823385 4.49994 1.53723 5.73502 2.62031 6.45994C1.95815 6.43841 1.33538 6.25687 0.790769 5.95533V6.00456C0.790769 7.96271 2.18154 9.59533 4.03015 9.96641C3.69169 10.0587 3.33477 10.1079 2.96554 10.1079C2.70523 10.1079 2.45292 10.0833 2.20677 10.0359C2.72 11.6396 4.21292 12.8076 5.97908 12.8409C4.59754 13.9239 2.856 14.5701 0.963692 14.5701C0.637539 14.5701 0.315692 14.5516 0 14.5147C1.78831 15.6593 3.91139 16.3276 6.19262 16.3276C13.6215 16.3276 17.6849 10.1738 17.6849 4.83533C17.6849 4.66056 17.68 4.48579 17.6726 4.31225C18.4622 3.74302 19.1465 3.03225 19.6886 2.22118Z" fill="white"/>
</svg>
